<svg width="100%" viewBox="0 0 680 460" xmlns="http://www.w3.org/2000/svg">
  <defs>
    <pattern id="grid" width="8" height="8" patternUnits="userSpaceOnUse">
      <rect width="8" height="8" fill="none"/>
      <path d="M0 0h8v8" fill="none" stroke="#FF8C00" stroke-width="0.15" opacity="0.25"/>
    </pattern>
  </defs>

  <!-- Outer border double frame -->
  <rect x="10" y="10" width="660" height="440" rx="4" fill="#0a0a0a" stroke="#FF8C00" stroke-width="3"/>
  <rect x="16" y="16" width="648" height="428" rx="2" fill="none" stroke="#FF8C00" stroke-width="1" opacity="0.5"/>

  <!-- Corner decorations -->
  <rect x="14" y="14" width="12" height="4" fill="#7B5EA7"/>
  <rect x="14" y="14" width="4" height="12" fill="#7B5EA7"/>
  <rect x="654" y="14" width="12" height="4" fill="#7B5EA7"/>
  <rect x="662" y="14" width="4" height="12" fill="#7B5EA7"/>
  <rect x="14" y="434" width="12" height="4" fill="#7B5EA7"/>
  <rect x="14" y="430" width="4" height="12" fill="#7B5EA7"/>
  <rect x="654" y="434" width="12" height="4" fill="#7B5EA7"/>
  <rect x="662" y="430" width="4" height="12" fill="#7B5EA7"/>

  <!-- Bottom corner dots -->
  <rect x="22" y="428" width="4" height="4" fill="#7B5EA7"/>
  <rect x="30" y="428" width="4" height="4" fill="#7B5EA7"/>
  <rect x="644" y="428" width="4" height="4" fill="#7B5EA7"/>
  <rect x="652" y="428" width="4" height="4" fill="#7B5EA7"/>

  <!-- Title bar -->
  <rect x="220" y="26" width="240" height="26" rx="0" fill="#0a0a0a" stroke="#FF8C00" stroke-width="1"/>
  <text font-family="'Courier New', monospace" font-size="14" font-weight="700" fill="#FF8C00" x="340" y="44" text-anchor="middle" letter-spacing="4">[ STATS ]</text>

  <!-- ROW 1: MANEJO DEL ESTRES 90% -->
  <polygon points="32,80 40,75 40,85" fill="#FF8C00"/>
  <text font-family="'Courier New', monospace" font-size="11" font-weight="700" fill="#FF8C00" x="50" y="83" letter-spacing="1">MANEJO DEL ESTRES</text>
  <rect x="32" y="88" width="540" height="10" rx="1" fill="#1a1a1a" stroke="#FF8C00" stroke-width="0.5" opacity="0.6"/>
  <rect x="32" y="88" width="486" height="10" rx="1" fill="#FF8C00"/>
  <rect x="32" y="88" width="486" height="5" rx="1" fill="#FFB840" opacity="0.3"/>
  <text font-family="'Courier New', monospace" font-size="10" fill="#7B5EA7" x="580" y="97" text-anchor="end">90%</text>

  <!-- ROW 2: CONCENTRACION 100% -->
  <polygon points="32,126 40,121 40,131" fill="#FF8C00"/>
  <text font-family="'Courier New', monospace" font-size="11" font-weight="700" fill="#FF8C00" x="50" y="129" letter-spacing="1">CONCENTRACION</text>
  <rect x="32" y="134" width="540" height="10" rx="1" fill="#1a1a1a" stroke="#FF8C00" stroke-width="0.5" opacity="0.6"/>
  <rect x="32" y="134" width="540" height="10" rx="1" fill="#FF8C00"/>
  <rect x="32" y="134" width="540" height="5" rx="1" fill="#FFB840" opacity="0.3"/>
  <text font-family="'Courier New', monospace" font-size="10" fill="#7B5EA7" x="580" y="143" text-anchor="end">100%</text>

  <!-- ROW 3: TRABAJO EN EQUIPO 85% -->
  <polygon points="32,172 40,167 40,177" fill="#FF8C00"/>
  <text font-family="'Courier New', monospace" font-size="11" font-weight="700" fill="#FF8C00" x="50" y="175" letter-spacing="1">TRABAJO EN EQUIPO</text>
  <rect x="32" y="180" width="540" height="10" rx="1" fill="#1a1a1a" stroke="#FF8C00" stroke-width="0.5" opacity="0.6"/>
  <rect x="32" y="180" width="459" height="10" rx="1" fill="#FF8C00"/>
  <rect x="32" y="180" width="459" height="5" rx="1" fill="#FFB840" opacity="0.3"/>
  <text font-family="'Courier New', monospace" font-size="10" fill="#7B5EA7" x="580" y="189" text-anchor="end">85%</text>

  <!-- ROW 4: TRABAJO EN SOLITARIO 90% -->
  <polygon points="32,218 40,213 40,223" fill="#FF8C00"/>
  <text font-family="'Courier New', monospace" font-size="11" font-weight="700" fill="#FF8C00" x="50" y="221" letter-spacing="1">TRABAJO EN SOLITARIO</text>
  <rect x="32" y="226" width="540" height="10" rx="1" fill="#1a1a1a" stroke="#FF8C00" stroke-width="0.5" opacity="0.6"/>
  <rect x="32" y="226" width="486" height="10" rx="1" fill="#FF8C00"/>
  <rect x="32" y="226" width="486" height="5" rx="1" fill="#FFB840" opacity="0.3"/>
  <text font-family="'Courier New', monospace" font-size="10" fill="#7B5EA7" x="580" y="235" text-anchor="end">90%</text>

  <!-- ROW 5: ADAPTABILIDAD 95% -->
  <polygon points="32,264 40,259 40,269" fill="#FF8C00"/>
  <text font-family="'Courier New', monospace" font-size="11" font-weight="700" fill="#FF8C00" x="50" y="267" letter-spacing="1">ADAPTABILIDAD</text>
  <rect x="32" y="272" width="540" height="10" rx="1" fill="#1a1a1a" stroke="#FF8C00" stroke-width="0.5" opacity="0.6"/>
  <rect x="32" y="272" width="513" height="10" rx="1" fill="#FF8C00"/>
  <rect x="32" y="272" width="513" height="5" rx="1" fill="#FFB840" opacity="0.3"/>
  <text font-family="'Courier New', monospace" font-size="10" fill="#7B5EA7" x="580" y="281" text-anchor="end">95%</text>

  <!-- ROW 6: COMUNICACION 80% -->
  <polygon points="32,310 40,305 40,315" fill="#FF8C00"/>
  <text font-family="'Courier New', monospace" font-size="11" font-weight="700" fill="#FF8C00" x="50" y="313" letter-spacing="1">COMUNICACION</text>
  <rect x="32" y="318" width="540" height="10" rx="1" fill="#1a1a1a" stroke="#FF8C00" stroke-width="0.5" opacity="0.6"/>
  <rect x="32" y="318" width="432" height="10" rx="1" fill="#FF8C00"/>
  <rect x="32" y="318" width="432" height="5" rx="1" fill="#FFB840" opacity="0.3"/>
  <text font-family="'Courier New', monospace" font-size="10" fill="#7B5EA7" x="580" y="327" text-anchor="end">80%</text>

  <!-- ROW 7: GESTION DEL TIEMPO 85% -->
  <polygon points="32,356 40,351 40,361" fill="#FF8C00"/>
  <text font-family="'Courier New', monospace" font-size="11" font-weight="700" fill="#FF8C00" x="50" y="359" letter-spacing="1">GESTION DEL TIEMPO</text>
  <rect x="32" y="364" width="540" height="10" rx="1" fill="#1a1a1a" stroke="#FF8C00" stroke-width="0.5" opacity="0.6"/>
  <rect x="32" y="364" width="459" height="10" rx="1" fill="#FF8C00"/>
  <rect x="32" y="364" width="459" height="5" rx="1" fill="#FFB840" opacity="0.3"/>
  <text font-family="'Courier New', monospace" font-size="10" fill="#7B5EA7" x="580" y="373" text-anchor="end">85%</text>

  <!-- ROW 8: RESOLUCION DE PROBLEMAS 100% -->
  <polygon points="32,402 40,397 40,407" fill="#FF8C00"/>
  <text font-family="'Courier New', monospace" font-size="11" font-weight="700" fill="#FF8C00" x="50" y="405" letter-spacing="1"></text>
  <rect x="32" y="410" width="540" height="10" rx="1" fill="#1a1a1a" stroke="#FF8C00" stroke-width="0.5" opacity="0.6"/>
  <rect x="32" y="410" width="540" height="10" rx="1" fill="#FF8C00"/>
  <rect x="32" y="410" width="540" height="5" rx="1" fill="#FFB840" opacity="0.3"/>
  <text font-family="'Courier New', monospace" font-size="10" fill="#7B5EA7" x="580" y="419" text-anchor="end">100%</text>

  <!-- Footer signature -->
  <text font-family="'Courier New', monospace" font-size="10" fill="#7B5EA7" x="340" y="445" text-anchor="middle" letter-spacing="2">Peter Ozahl</text>
</svg>
